<svg width="15" height="6" viewBox="0 0 15 6" fill="none" xmlns="http://www.w3.org/2000/svg">
<path d="M14.69 3.55893H0.309263C0.138202 3.55893 0 3.42072 0 3.24966C0 3.0786 0.138202 2.9404 0.309263 2.9404H13.9429L12.0661 1.06356C11.9453 0.942755 11.9453 0.746566 12.0661 0.625761C12.1869 0.504955 12.3831 0.504955 12.5039 0.625761L14.9094 3.03125C14.9983 3.12016 15.0244 3.25256 14.9761 3.36854C14.9277 3.48354 14.8147 3.55893 14.69 3.55893Z" fill="#3B3B3B"/>
<path d="M12.2816 5.96709C12.2023 5.96709 12.1231 5.93713 12.0631 5.87624C11.9423 5.75544 11.9423 5.55925 12.0631 5.43844L14.4715 3.03006C14.5923 2.90925 14.7885 2.90925 14.9093 3.03006C15.0301 3.15086 15.0301 3.34705 14.9093 3.46786L12.5009 5.87624C12.4401 5.93713 12.3608 5.96709 12.2816 5.96709Z" fill="#3B3B3B"/>
</svg>
