<svg width="11" height="6" viewBox="0 0 11 6" fill="none" xmlns="http://www.w3.org/2000/svg">
<path d="M10.7352 2.54187L8.2792 0.0858528C8.19097 -0.017167 8.03592 -0.0291764 7.9329 0.059069C7.82989 0.147293 7.81788 0.30234 7.90612 0.40536C7.91435 0.414963 7.9233 0.423933 7.9329 0.432144L9.96892 2.47063H0.245593C0.109964 2.47063 0 2.58059 0 2.71624C0 2.8519 0.109964 2.96184 0.245593 2.96184H9.96892L7.9329 4.99786C7.82989 5.08608 7.81788 5.24113 7.90612 5.34415C7.99437 5.44717 8.14939 5.45918 8.25241 5.37093C8.26201 5.3627 8.27099 5.35375 8.2792 5.34415L10.7352 2.88813C10.8304 2.79238 10.8304 2.63767 10.7352 2.54187Z" fill="#0079AD"/>
</svg>
