<svg width="16" height="11" viewBox="0 0 16 11" fill="none" xmlns="http://www.w3.org/2000/svg">
<path d="M15.2032 10.1355H0.266736C0.119439 10.1355 0 10.0161 0 9.86876V0.266735C0 0.119439 0.119439 0 0.266736 0H15.2032C15.3505 0 15.47 0.119439 15.47 0.266735V9.86876C15.4699 10.0161 15.3505 10.1355 15.2032 10.1355Z" fill="#41479B"/>
<path d="M15.4699 0.266735C15.4699 0.119439 15.3505 0 15.2032 0H14.0099L9.06856 3.23742V0H6.40132V3.23742L1.46004 0H0.266736C0.119439 0 0 0.119439 0 0.266735V0.956568L4.2394 3.73412H0V6.40135H4.2394L0 9.17893V9.86876C0 10.0161 0.119439 10.1355 0.266736 10.1355H1.46007L6.40138 6.89808V10.1355H9.06862V6.89808L14.0099 10.1355H15.2033C15.3506 10.1355 15.47 10.0161 15.47 9.86876V9.17893L11.2306 6.40138H15.4699V3.73415H11.2305L15.4699 0.956568V0.266735Z" fill="#F5F5F5"/>
<path d="M15.4699 4.26759H8.53515V0H6.93479V4.26759H0V5.86791H6.93479V10.1355H8.53515V5.86791H15.4699V4.26759Z" fill="#FF4B55"/>
<path d="M5.40686 6.40137L0.0075531 9.90618C0.0264373 10.035 0.132642 10.1355 0.266705 10.1355H0.634086L6.38667 6.4014H5.40686V6.40137Z" fill="#FF4B55"/>
<path d="M10.466 6.40137H9.48621L15.2304 10.13C15.3643 10.1157 15.47 10.0064 15.47 9.86875V9.64945L10.466 6.40137Z" fill="#FF4B55"/>
<path d="M0 0.56153L4.88811 3.7345H5.86791L0.155394 0.0263672C0.0641459 0.0687584 0 0.159856 0 0.267088V0.56153Z" fill="#FF4B55"/>
<path d="M10.0484 3.73412L15.4607 0.220839C15.4382 0.0962943 15.3342 0 15.2032 0H14.8211L9.06859 3.73412H10.0484Z" fill="#FF4B55"/>
</svg>
