<svg width="21" height="21" viewBox="0 0 21 21" fill="none" xmlns="http://www.w3.org/2000/svg">
<path fill-rule="evenodd" clip-rule="evenodd" d="M14.3351 0.0637634C12.4676 -0.0233559 7.84178 -0.0191268 5.97252 0.0637634C4.32994 0.140733 2.88105 0.537422 1.71297 1.7055C-0.0339027 3.45237 -0.0177886 5.74244 0.00491529 8.96904C0.00758317 9.34819 0.010342 9.74027 0.010342 10.1459C0.010342 10.5256 0.00830861 10.8925 0.00634221 11.2473C-0.0121408 14.5824 -0.0247004 16.8487 1.71297 18.5863C3.46305 20.3357 5.77837 20.3185 8.96852 20.2948H8.96857C9.35078 20.2919 9.74554 20.289 10.1534 20.289H10.2084C14.0772 20.289 15.4209 20.289 16.7973 19.7561C18.6776 19.0262 20.0968 17.3455 20.2356 14.3268C20.3235 12.4584 20.3184 7.83345 20.2356 5.96419C20.0681 2.40076 18.1557 0.239694 14.3351 0.0637634ZM17.2913 17.2948C16.1127 18.4733 14.5138 18.4697 11.0601 18.4617C10.7637 18.461 10.4536 18.4603 10.1289 18.4603L9.54794 18.4606C5.74104 18.4633 4.14563 18.4645 2.96648 17.2821C1.73975 16.0612 1.76004 14.2036 1.78948 11.5077V11.5077C1.79424 11.0715 1.79925 10.6133 1.79925 10.1324C1.79925 9.72454 1.7956 9.32666 1.79204 8.93995L1.79204 8.93992C1.75491 4.89559 1.729 2.07276 6.00973 1.85352L6.05827 1.8518C7.09748 1.81507 7.44565 1.80277 10.117 1.80277L10.1551 1.82814C10.5413 1.82814 10.9204 1.82468 11.2909 1.82129C15.2441 1.78515 18.217 1.75798 18.4111 6.04539C18.4593 7.11535 18.4703 7.43676 18.4703 10.1451C18.4703 10.3886 18.4705 10.6237 18.4707 10.8508V10.8509C18.4742 14.5224 18.4757 16.1047 17.2913 17.2948ZM10.1535 4.9376C7.27518 4.9376 4.94495 7.27037 4.94495 10.1461C4.94495 13.0245 7.27771 15.3547 10.1535 15.3547C13.0318 15.3547 15.362 13.0219 15.362 10.1461C15.362 7.26783 13.0293 4.9376 10.1535 4.9376ZM10.1535 13.5269C8.28508 13.5269 6.77276 12.0137 6.77276 10.1461C6.77276 8.27858 8.28593 6.76541 10.1535 6.76541C12.0211 6.76541 13.5342 8.27858 13.5342 10.1461C13.5351 12.0137 12.0219 13.5269 10.1535 13.5269ZM16.7855 4.73183C16.7855 5.40403 16.2405 5.94896 15.5683 5.94896C14.8961 5.94896 14.3512 5.40403 14.3512 4.73183C14.3512 4.05963 14.8961 3.5147 15.5683 3.5147C16.2405 3.5147 16.7855 4.05963 16.7855 4.73183Z" fill="url(#paint0_linear_40_378)"/>
<defs>
<linearGradient id="paint0_linear_40_378" x1="1.2159e-07" y1="18.5" x2="19" y2="3" gradientUnits="userSpaceOnUse">
<stop stop-color="#F0C90A"/>
<stop offset="0.536458" stop-color="#F70960"/>
<stop offset="1" stop-color="#F503B9"/>
</linearGradient>
</defs>
</svg>
