<svg width="29" height="11" viewBox="0 0 29 11" fill="none" xmlns="http://www.w3.org/2000/svg">
<path d="M0.599361 5.84595H28.4021C28.7328 5.84595 29 5.57876 29 5.24805C29 4.91733 28.7328 4.65014 28.4021 4.65014H2.04368L5.67224 1.02158C5.9058 0.788024 5.9058 0.408726 5.67224 0.175168C5.43868 -0.0583895 5.05938 -0.0583895 4.82582 0.175168L0.17522 4.82577C0.0033226 4.99767 -0.0471268 5.25365 0.0462952 5.47787C0.139719 5.70021 0.35833 5.84595 0.599361 5.84595Z" fill="#1D1D1D"/>
<path d="M5.25555 10.5019C5.40877 10.5019 5.56198 10.4439 5.67783 10.3262C5.91139 10.0927 5.91139 9.71337 5.67783 9.47982L1.02162 4.82361C0.788059 4.59005 0.408762 4.59005 0.175205 4.82361C-0.0583534 5.05716 -0.0583534 5.43646 0.175205 5.67002L4.83141 10.3262C4.94913 10.4439 5.10234 10.5019 5.25555 10.5019Z" fill="#1D1D1D"/>
</svg>
