<svg width="15" height="14" viewBox="0 0 15 14" fill="none" xmlns="http://www.w3.org/2000/svg">
<path fill-rule="evenodd" clip-rule="evenodd" d="M15 2.79572L7.5 7L0 2.79572C0.238526 1.98916 0.722349 1.28243 1.38045 0.779256C2.03856 0.276081 2.83628 0.00296623 3.65653 0H11.3435C12.1637 0.00296623 12.9614 0.276081 13.6195 0.779256C14.2777 1.28243 14.7615 1.98916 15 2.79572ZM7.5 8.88443C7.62552 8.88443 7.74904 8.85376 7.85925 8.79522L15 5V10.346C14.9988 11.3148 14.6034 12.2435 13.9004 12.9285C13.1973 13.6135 12.2442 13.9989 11.25 14H3.75C2.7558 13.9989 1.80265 13.6135 1.09964 12.9285C0.396635 12.2435 0.00117109 11.3148 0 10.346V5L7.14075 8.79522C7.25096 8.85376 7.37448 8.88443 7.5 8.88443Z" fill="#018BC6"/>
</svg>
