<svg width="16" height="11" viewBox="0 0 16 11" fill="none" xmlns="http://www.w3.org/2000/svg">
<path d="M10.6061 0H15.4975C15.6449 0 15.7643 0.119475 15.7643 0.266817V9.87179C15.7643 10.0191 15.6449 10.1386 15.4975 10.1386H10.6061V0Z" fill="#FF4B55"/>
<path d="M10.6062 0H5.44782V10.1386H10.6062V0Z" fill="#FFE15A"/>
<path d="M0.556368 0H5.44779V10.1386H0.556368C0.409026 10.1386 0.289551 10.0191 0.289551 9.87176V0.266787C0.289551 0.119445 0.409026 0 0.556368 0Z" fill="#41479B"/>
<path d="M8.97242 6.89825L9.10514 6.79004L8.50033 6.04826L8.36761 6.15647L8.97242 6.89825Z" fill="#FFCD5A"/>
<path d="M8.56688 6.53658L8.83234 6.32031L8.56629 5.99373L8.30083 6.21L8.56688 6.53658Z" fill="#FFBE5A"/>
<path d="M7.76046 6.15606L7.62774 6.04785L7.02293 6.78963L7.15565 6.89784L7.76046 6.15606Z" fill="#FFCD5A"/>
<path d="M7.82671 6.21041L7.56124 5.99414L7.29519 6.32072L7.56066 6.53699L7.82671 6.21041Z" fill="#FFBE5A"/>
<path d="M7.8497 6.32617L7.42164 7.18233L8.02092 7.61039V6.4118L7.8497 6.32617Z" fill="#FFE15A"/>
<path d="M8.19218 6.32617L8.62024 7.18233L8.02093 7.61039V6.4118L8.19218 6.32617Z" fill="#FFCD5A"/>
<path d="M6.82235 6.32658V4.10059H7.0792C7.0792 4.10059 7.0792 5.55605 7.0792 5.81287C7.0792 6.06974 6.82235 6.32658 6.82235 6.32658Z" fill="#FFBE5A"/>
<path d="M6.6511 6.75468V4.10059H6.90794C6.90794 4.10059 6.90794 5.98412 6.90794 6.24096C6.90791 6.4978 6.6511 6.75468 6.6511 6.75468Z" fill="#FFCD5A"/>
<path d="M6.47985 7.09711V4.10059H6.73669C6.73669 4.10059 6.73669 6.32658 6.73669 6.58343C6.73669 6.84024 6.47985 7.09711 6.47985 7.09711Z" fill="#FFE15A"/>
<path d="M7.07932 4.18555C7.07932 4.18555 7.07932 5.40554 7.07932 5.81223C7.07932 6.24033 7.70003 6.18323 8.02107 6.49714C8.34214 6.1832 8.96282 6.2403 8.96282 5.81223C8.96282 5.40557 8.96282 4.18555 8.96282 4.18555H7.07932Z" fill="#FF4B55"/>
<path d="M7.07932 5.12796C7.07932 5.39901 7.07932 5.66196 7.07932 5.8129C7.07932 6.24099 7.70003 6.1839 8.02107 6.4978C8.34214 6.18387 8.96282 6.24096 8.96282 5.81287C8.96282 5.66196 8.96282 5.39898 8.96282 5.12793L7.07932 5.12796Z" fill="#41479B"/>
<path d="M8.0209 6.23996L7.76406 6.06874V5.98312L7.84968 5.89752V5.3838L7.59284 5.21259L7.84968 4.87012H7.93528L8.0209 4.95577L8.10653 4.87012H8.19215L8.44899 5.21259L8.19215 5.3838V5.89752L8.27774 5.98312V6.06874L8.0209 6.23996Z" fill="#FFE15A"/>
<path d="M7.67849 4.27148C7.67849 4.27148 7.33606 4.35711 7.33606 4.69958C7.33606 5.04205 7.67849 5.21326 7.67849 5.21326L7.84971 4.95642C7.33603 4.78517 7.67849 4.27148 7.67849 4.27148Z" fill="#FFE15A"/>
<path d="M8.36334 4.27148C8.36334 4.27148 8.70578 4.35711 8.70578 4.69958C8.70578 5.04205 8.36334 5.21326 8.36334 5.21326L8.19212 4.95642C8.70578 4.78517 8.36334 4.27148 8.36334 4.27148Z" fill="#FFE15A"/>
<path d="M7.1648 5.12762L7.33602 5.21321L7.50727 5.12762L7.33602 5.04199L7.1648 5.12762Z" fill="#FFE15A"/>
<path d="M8.53463 5.12762L8.70585 5.21321L8.87709 5.12762L8.70585 5.04199L8.53463 5.12762Z" fill="#FFE15A"/>
<path d="M8.02106 4.31445L8.08332 4.37823L8.17239 4.37714L8.17136 4.46624L8.2351 4.5285L8.17136 4.59073L8.17239 4.67983L8.08332 4.67877L8.02106 4.74255L7.95883 4.67877L7.8697 4.67983L7.87078 4.59073L7.80704 4.5285L7.87078 4.46624L7.8697 4.37714L7.95883 4.37823L8.02106 4.31445Z" fill="#FFE15A"/>
<path d="M7.43954 5.50123L7.50125 5.5699L7.58709 5.53587C7.63155 5.51825 7.67326 5.56658 7.64932 5.60798L7.60311 5.68793L7.66201 5.75907C7.69251 5.79589 7.65942 5.85053 7.61266 5.84056L7.52235 5.82127L7.4729 5.89928C7.4473 5.93966 7.38513 5.92506 7.38015 5.87749L7.37053 5.78564L7.2811 5.76273C7.23477 5.75085 7.22945 5.68723 7.27312 5.66783L7.35751 5.63035L7.35167 5.5382C7.34874 5.49038 7.40759 5.46566 7.43954 5.50123Z" fill="#FFE15A"/>
<path d="M8.57981 5.69623C8.5987 5.59885 8.67903 5.52991 8.7727 5.51951C8.75347 5.50917 8.73304 5.50062 8.71053 5.49627C8.5906 5.47303 8.47454 5.5514 8.4513 5.6713C8.42805 5.79123 8.50639 5.90729 8.62632 5.93053C8.64887 5.93491 8.67102 5.93464 8.69266 5.93222C8.6097 5.88758 8.56095 5.79361 8.57981 5.69623Z" fill="#FFE15A"/>
<path d="M7.67852 4.18562L7.84974 3.32946L7.50731 3.07262L7.59293 2.98699H7.76415C7.76415 2.98699 7.84977 2.90137 8.02099 2.90137C8.19221 2.90137 8.36343 2.98699 8.36343 3.24381C8.36343 3.50062 8.44905 4.18556 8.44905 4.18556H7.67852V4.18562Z" fill="#FFE15A"/>
<path d="M7.07926 3.84375C6.89012 3.84375 6.73682 3.99708 6.73682 4.18619H7.42176C7.42173 3.99708 7.26837 3.84375 7.07926 3.84375Z" fill="#FFAA5A"/>
<path d="M6.99354 4.18557H6.47985V3.6157C6.47985 3.50486 6.56971 3.41504 6.68051 3.41504H6.79288C6.90371 3.41504 6.99354 3.50489 6.99354 3.6157V4.18557Z" fill="#FFBE5A"/>
<path d="M9.21956 6.32561V4.09961H8.96272C8.96272 4.09961 8.96272 5.55508 8.96272 5.81189C8.96272 6.06876 9.21956 6.32561 9.21956 6.32561Z" fill="#FFBE5A"/>
<path d="M9.39081 6.75468V4.10059H9.13396C9.13396 4.10059 9.13396 5.98412 9.13396 6.24096C9.13396 6.4978 9.39081 6.75468 9.39081 6.75468Z" fill="#FFCD5A"/>
<path d="M9.56206 7.09711V4.10059H9.30522C9.30522 4.10059 9.30522 6.32658 9.30522 6.58343C9.30519 6.84024 9.56206 7.09711 9.56206 7.09711Z" fill="#FFE15A"/>
<path d="M8.96271 3.84375C9.15185 3.84375 9.30515 3.99708 9.30515 4.18619H8.62021C8.62024 3.99708 8.77357 3.84375 8.96271 3.84375Z" fill="#FFAA5A"/>
<path d="M9.04844 4.18557H9.56212V3.6157C9.56212 3.50486 9.47227 3.41504 9.36147 3.41504H9.24912C9.13829 3.41504 9.04847 3.50489 9.04847 3.6157L9.04844 4.18557Z" fill="#FFBE5A"/>
<path d="M10.0398 5.16054L9.93013 5.09375L8.7312 7.06261L8.84088 7.1294L10.0398 5.16054Z" fill="#FFAA5A"/>
<path d="M8.99417 7.01653L9.208 6.74902L8.99881 6.5818L8.78498 6.8493L8.99417 7.01653Z" fill="#FFE15A"/>
<path d="M10.0751 5.18355L9.89226 5.07227L9.63544 5.49422L9.81828 5.60551L10.0751 5.18355Z" fill="#FFCD5A"/>
<path d="M7.36902 7.0608L6.16052 5.19141L6.08862 5.23789L7.29711 7.10728L7.36902 7.0608Z" fill="#73AF00"/>
<path d="M6.92101 6.07812C6.8903 6.11294 6.86993 6.16574 6.86479 6.22662C6.82257 6.184 6.77409 6.15686 6.72893 6.14957C6.71702 6.19373 6.72186 6.2491 6.74341 6.30508C6.68577 6.28477 6.62931 6.28165 6.58498 6.29538C6.59746 6.35848 6.64887 6.42697 6.72766 6.47397C6.80643 6.521 6.89115 6.53369 6.95259 6.51471L6.97018 6.50335C7.01271 6.45508 7.03589 6.37266 7.02537 6.28153C7.01476 6.19041 6.97338 6.11542 6.92101 6.07812Z" fill="#73AF00"/>
<path d="M6.96148 6.59508C7.00877 6.59508 7.04711 6.55674 7.04711 6.50945C7.04711 6.46216 7.00877 6.42383 6.96148 6.42383C6.91419 6.42383 6.87586 6.46216 6.87586 6.50945C6.87586 6.55674 6.91419 6.59508 6.96148 6.59508Z" fill="#FF4B55"/>
<path d="M6.59565 5.5752C6.56494 5.61001 6.54457 5.66282 6.53943 5.72369C6.49721 5.68107 6.44873 5.65393 6.40357 5.64665C6.39167 5.6908 6.3965 5.74617 6.41805 5.80215C6.36041 5.78184 6.30396 5.77872 6.25962 5.79245C6.2721 5.85555 6.32351 5.92404 6.4023 5.97104C6.48107 6.01807 6.56579 6.03076 6.62723 6.01178L6.64482 6.00042C6.68735 5.95215 6.71053 5.86973 6.70001 5.7786C6.68943 5.68745 6.64806 5.61246 6.59565 5.5752Z" fill="#73AF00"/>
<path d="M6.63631 6.09215C6.6836 6.09215 6.72194 6.05381 6.72194 6.00652C6.72194 5.95923 6.6836 5.9209 6.63631 5.9209C6.58902 5.9209 6.55069 5.95923 6.55069 6.00652C6.55069 6.05381 6.58902 6.09215 6.63631 6.09215Z" fill="#FF4B55"/>
<path d="M6.27048 5.07129C6.23977 5.10611 6.2194 5.15891 6.21426 5.21978C6.17204 5.17716 6.12356 5.15002 6.07841 5.14274C6.0665 5.1869 6.07133 5.24227 6.09288 5.29824C6.03524 5.27793 5.97879 5.27482 5.93445 5.28854C5.94693 5.35165 5.99834 5.42013 6.07714 5.46713C6.1559 5.51416 6.24062 5.52685 6.30206 5.50787L6.31965 5.49651C6.36218 5.44824 6.38536 5.36582 6.37484 5.2747C6.3642 5.18354 6.32286 5.10856 6.27048 5.07129Z" fill="#73AF00"/>
<path d="M6.31076 5.58824C6.35805 5.58824 6.39639 5.54991 6.39639 5.50262C6.39639 5.45533 6.35805 5.41699 6.31076 5.41699C6.26348 5.41699 6.22514 5.45533 6.22514 5.50262C6.22514 5.54991 6.26348 5.58824 6.31076 5.58824Z" fill="#FF4B55"/>
<path d="M7.34286 6.84953L7.12902 6.58203L6.91983 6.74925L7.13367 7.01676L7.34286 6.84953Z" fill="#FFE15A"/>
<path d="M7.59294 2.73047H7.50732V3.32978H7.59294V2.73047Z" fill="#FFE15A"/>
<path d="M7.67825 2.81641H7.42141V2.90203H7.67825V2.81641Z" fill="#FFE15A"/>
<path d="M7.50736 3.0729L7.7642 3.26555V2.9873H7.59298L7.50736 3.0729Z" fill="#FF875A"/>
<path d="M7.59288 2.73021V2.81584H7.6785V2.90146H7.59288V2.98709H7.7641C7.7641 2.98709 7.84972 2.90146 8.02094 2.90146C8.19216 2.90146 8.36338 2.98709 8.36338 3.2439C8.36338 3.50074 8.449 4.18565 8.449 4.18565H8.62022C8.62022 3.99651 8.77355 3.84321 8.96266 3.84321C8.9924 3.84321 9.02075 3.84817 9.04828 3.85533V3.67199C9.04828 3.53015 9.16329 3.41515 9.30513 3.41515C9.44697 3.41515 9.56197 3.53015 9.56197 3.67199V4.10008V4.18571V5.69769L9.67253 5.51608L9.63599 5.49383L9.89283 5.07185L9.92937 5.09409L9.98423 5.12752L10.0757 5.18316L9.81882 5.60515L9.78224 5.5829L9.56197 5.94481V7.09673C9.56197 7.09673 9.35754 6.89172 9.31377 6.66492C9.28249 6.62473 9.24646 6.57346 9.21476 6.51525L9.11677 6.67623L9.20787 6.74904L8.99403 7.01655L8.93724 6.97115L8.84046 7.13016L8.73078 7.06337L8.83611 6.8903L8.78497 6.84941L8.85778 6.75829L8.63313 6.48276L8.56673 6.53686L8.36698 6.29175C8.31381 6.31312 8.26125 6.3366 8.21069 6.36344L8.62013 7.18236L8.02082 7.61045L7.42151 7.18236L7.83095 6.36344C7.80073 6.34739 7.77002 6.33219 7.73862 6.31834L7.56057 6.53686L7.49417 6.48276L7.26951 6.75829L7.34232 6.84941L7.2696 6.90753L7.36898 7.06125L7.29708 7.10774L7.20238 6.96127L7.13326 7.01652L6.91943 6.74901L7.01551 6.67221L6.96458 6.59341C6.96337 6.59344 6.96219 6.59347 6.96099 6.59347C6.933 6.59347 6.90558 6.58099 6.88929 6.55575C6.88234 6.54503 6.87859 6.5333 6.87693 6.52145C6.86082 6.52048 6.8445 6.51819 6.82752 6.51414C6.79569 6.5728 6.75942 6.62445 6.72796 6.66492C6.68422 6.89175 6.47976 7.09673 6.47976 7.09673V6.00459C6.45389 5.99646 6.4278 5.98612 6.40214 5.9708C6.32338 5.92377 6.27194 5.85528 6.25946 5.79221C6.27747 5.78664 6.29745 5.78386 6.31873 5.78386C6.34986 5.78386 6.38371 5.78988 6.41792 5.80191C6.40677 5.77289 6.40027 5.74418 6.39812 5.71698L6.31392 5.58671C6.31271 5.58674 6.31153 5.58677 6.31032 5.58677C6.28234 5.58677 6.25492 5.57429 6.23863 5.54905C6.23168 5.53832 6.22793 5.5266 6.22624 5.51475C6.17885 5.51191 6.12692 5.4974 6.07684 5.46754C5.99808 5.42051 5.94664 5.35202 5.93415 5.28895C5.95217 5.28338 5.97218 5.2806 5.99342 5.2806C6.02455 5.2806 6.05841 5.28659 6.09262 5.29865C6.07107 5.24264 6.06623 5.1873 6.07814 5.14315C6.1233 5.15043 6.17178 5.17757 6.214 5.22019C6.21914 5.15931 6.23951 5.10651 6.27019 5.0717C6.32259 5.10899 6.36394 5.18398 6.37446 5.27513C6.38117 5.3331 6.37307 5.38639 6.35617 5.43079C6.3663 5.43722 6.37546 5.44542 6.38238 5.45617C6.39939 5.4825 6.39879 5.51414 6.38579 5.54029L6.47 5.67055C6.47326 5.67237 6.47646 5.67454 6.47973 5.67657V4.1858V4.10017V3.67208C6.47973 3.53024 6.59473 3.41524 6.73657 3.41524C6.87841 3.41524 6.99342 3.53024 6.99342 3.67208V3.85542C7.02092 3.84829 7.04927 3.8433 7.07904 3.8433C7.26818 3.8433 7.42148 3.99663 7.42148 4.18574H7.67832L7.84954 3.32958L7.76392 3.26539L7.5927 3.13697V3.32961H7.50707V2.90152H7.42145V2.8159H7.50707V2.73027H7.59303M8.96722 6.62134L8.99884 6.58178L9.01567 6.59523L9.15368 6.36852C9.14165 6.3266 9.13394 6.28359 9.13394 6.24046C9.13394 6.23626 9.13394 6.23048 9.13394 6.22541C9.05923 6.12712 8.96272 5.96986 8.96272 5.81236C8.96272 5.99268 8.85204 6.08662 8.70056 6.15879L8.83233 6.32052L8.76599 6.37456L8.96722 6.62134ZM7.08291 6.61832L7.12867 6.58175L7.16028 6.62131L7.36151 6.37447L7.29517 6.32043L7.40413 6.18672C7.22124 6.11034 7.07916 6.01677 7.07916 5.81233C7.07916 5.92697 7.02799 6.04137 6.97135 6.13319C6.99825 6.17266 7.01853 6.22314 7.0253 6.28159C7.03201 6.33956 7.02391 6.39285 7.00702 6.43725C7.01714 6.44368 7.0263 6.45187 7.03322 6.46263C7.05024 6.48896 7.04963 6.52057 7.03664 6.54675L7.08291 6.61832ZM7.59288 2.66602H7.50725C7.4718 2.66602 7.44306 2.69476 7.44306 2.73021V2.75161H7.42166C7.38621 2.75161 7.35746 2.78035 7.35746 2.81581V2.90143C7.35746 2.93688 7.38621 2.96563 7.42166 2.96563H7.44306V3.32949C7.44306 3.36495 7.4718 3.39369 7.50725 3.39369H7.59288C7.62833 3.39369 7.65707 3.36495 7.65707 3.32949V3.2653L7.72556 3.31665L7.77879 3.35657L7.62579 4.12142H7.48075C7.44986 3.9276 7.28154 3.77898 7.07913 3.77898C7.07203 3.77898 7.06493 3.77923 7.05773 3.77965V3.67196C7.05773 3.49494 6.91368 3.35089 6.73666 3.35089C6.55964 3.35089 6.41559 3.49494 6.41559 3.67196V4.10005V4.18568V5.17032C6.39241 5.10639 6.35472 5.0529 6.30748 5.01926C6.29624 5.01125 6.28321 5.00735 6.27031 5.00735C6.25244 5.00735 6.23473 5.01478 6.22213 5.02908C6.20236 5.05154 6.1861 5.07886 6.17398 5.10969C6.14587 5.09445 6.11695 5.08418 6.08842 5.07958C6.08497 5.07901 6.08156 5.07874 6.07817 5.07874C6.04961 5.07874 6.02392 5.09784 6.01624 5.12622C6.00872 5.15409 6.00621 5.18467 6.00857 5.21656C6.00352 5.21632 5.9985 5.2162 5.99352 5.2162C5.96571 5.2162 5.93938 5.21997 5.91529 5.22741C5.88389 5.23711 5.86488 5.26897 5.87123 5.30122C5.88785 5.38512 5.95241 5.46787 6.04399 5.52249C6.08624 5.54769 6.13212 5.56498 6.1787 5.57341C6.18057 5.57695 6.1826 5.5804 6.18477 5.58375C6.20584 5.61636 6.2389 5.63879 6.27671 5.64716L6.3235 5.71955C6.32193 5.71952 6.32039 5.71952 6.31885 5.71952C6.29104 5.71952 6.26471 5.72329 6.24063 5.73073C6.20922 5.74043 6.19021 5.77229 6.19656 5.80454C6.21318 5.88844 6.27774 5.97119 6.36932 6.02581C6.38395 6.03454 6.39918 6.04228 6.41562 6.04926V7.09646C6.41562 7.12245 6.43131 7.14588 6.45531 7.15579C6.46326 7.15906 6.47157 7.16066 6.47982 7.16066C6.49656 7.16066 6.51301 7.15413 6.52531 7.14177C6.53404 7.13303 6.73542 6.92893 6.78792 6.69206C6.8095 6.66368 6.82945 6.63506 6.84758 6.60641C6.86826 6.63029 6.89622 6.64676 6.92747 6.65371L6.93025 6.65797L6.87953 6.69853C6.86623 6.70917 6.85768 6.72465 6.85581 6.7416C6.8539 6.7585 6.85883 6.77551 6.86947 6.78881L7.0833 7.05632C7.09394 7.06962 7.10942 7.07818 7.12637 7.08005C7.12873 7.08032 7.13112 7.08044 7.13347 7.08044C7.14798 7.08044 7.16213 7.07555 7.17355 7.06639L7.18721 7.05548L7.24334 7.14231C7.25259 7.15661 7.26712 7.16667 7.28378 7.17024C7.28825 7.17121 7.29275 7.17166 7.29726 7.17166C7.30953 7.17166 7.32168 7.16815 7.33211 7.16135L7.37363 7.13451L7.36423 7.15334C7.35009 7.1816 7.35864 7.21594 7.38433 7.23431L7.98364 7.66241C7.99483 7.67039 8.00788 7.67437 8.02097 7.67437C8.03406 7.67437 8.04711 7.67039 8.0583 7.66241L8.65761 7.23431C8.68333 7.21594 8.69185 7.18163 8.67771 7.15334L8.29698 6.39185C8.31312 6.38423 8.32995 6.37668 8.34757 6.36909L8.5171 6.57712C8.52979 6.59269 8.54829 6.60076 8.56694 6.60076C8.5812 6.60076 8.59556 6.59601 8.60747 6.58631L8.62412 6.57277L8.77542 6.75835L8.73498 6.80894C8.72434 6.82224 8.71945 6.83923 8.72132 6.85615C8.72323 6.87311 8.73175 6.88858 8.74505 6.89922L8.75206 6.90481L8.67608 7.02961C8.65764 7.05989 8.66725 7.09936 8.69754 7.11783L8.80722 7.18462C8.81734 7.19079 8.82892 7.19399 8.84065 7.19399C8.84572 7.19399 8.85083 7.19339 8.85582 7.19215C8.87235 7.1881 8.88665 7.1777 8.8955 7.16314L8.95435 7.06645C8.96617 7.07579 8.98019 7.08032 8.99418 7.08032C9.01301 7.08032 9.03169 7.07204 9.04439 7.0562L9.25822 6.78869C9.26608 6.77884 9.27058 6.76738 9.27188 6.75575C9.34164 6.96438 9.50878 7.13373 9.5167 7.14168C9.52897 7.15398 9.54544 7.16057 9.56218 7.16057C9.57047 7.16057 9.57875 7.15896 9.58669 7.1557C9.61069 7.14576 9.62638 7.12236 9.62638 7.09637V5.96246L9.80582 5.66771C9.8102 5.66862 9.81458 5.66907 9.81897 5.66907C9.84064 5.66907 9.86179 5.6581 9.87388 5.63821L10.1307 5.21623C10.1396 5.20169 10.1423 5.18422 10.1383 5.16766C10.1342 5.15112 10.1238 5.13683 10.1092 5.12797L10.0178 5.07233L9.96298 5.03893L9.92635 5.01666C9.91596 5.01031 9.90441 5.00732 9.89308 5.00732C9.87141 5.00732 9.85025 5.01829 9.83819 5.03818L9.62641 5.38612V4.18547V4.09984V3.6719C9.62641 3.49488 9.48236 3.35083 9.30534 3.35083C9.12832 3.35083 8.98427 3.49488 8.98427 3.6719V3.77959C8.97711 3.77917 8.96997 3.77892 8.96287 3.77892C8.76046 3.77892 8.59214 3.92754 8.56126 4.12136H8.50604C8.48579 3.9528 8.42776 3.45121 8.42776 3.24381C8.42776 2.94399 8.21767 2.83714 8.02109 2.83714C7.8755 2.83714 7.78157 2.89264 7.74128 2.92277H7.73916C7.74152 2.91606 7.74282 2.90887 7.74282 2.90137V2.81575C7.74282 2.78029 7.71408 2.75155 7.67862 2.75155H7.65723V2.73015C7.65707 2.69476 7.62833 2.66602 7.59288 2.66602ZM7.04607 6.1331C7.06251 6.10418 7.07683 6.07565 7.08916 6.04754C7.14269 6.11938 7.2197 6.17046 7.30167 6.2109L7.24545 6.2799C7.23469 6.29311 7.22962 6.31003 7.23134 6.32699C7.23306 6.34394 7.24143 6.35951 7.25464 6.37024L7.27114 6.38372L7.15675 6.52402C7.15022 6.52082 7.14311 6.51876 7.13574 6.51791C7.13338 6.51764 7.13096 6.51752 7.12864 6.51752C7.12223 6.51752 7.11594 6.51849 7.10987 6.52033C7.1128 6.48805 7.10515 6.45565 7.08717 6.42779C7.08499 6.42443 7.08267 6.42114 7.08022 6.41799C7.09164 6.37208 7.09473 6.32315 7.0891 6.27425C7.0833 6.22405 7.06858 6.17599 7.04607 6.1331ZM8.79993 6.17913C8.85648 6.14616 8.9114 6.10439 8.95305 6.04826C8.98584 6.12313 9.02894 6.19122 9.06974 6.2468C9.07026 6.28256 9.07515 6.31937 9.08458 6.35845L8.98711 6.51861C8.98149 6.51964 8.97593 6.52145 8.9707 6.52402L8.8563 6.38372L8.8728 6.37024C8.88601 6.35948 8.89438 6.34391 8.89611 6.32699C8.89783 6.31006 8.89278 6.29311 8.88199 6.2799L8.79993 6.17913ZM7.56066 6.60094C7.57931 6.60094 7.59777 6.59287 7.6105 6.5773L7.71879 6.44444L7.42571 7.0306C7.42492 7.02912 7.42405 7.02767 7.42311 7.02622L7.35529 6.92125L7.38264 6.89937C7.39594 6.88873 7.40449 6.87326 7.40637 6.8563C7.40827 6.83941 7.40334 6.82239 7.3927 6.80912L7.35227 6.75853L7.50357 6.57292L7.52022 6.58646C7.53204 6.59625 7.54639 6.60094 7.56066 6.60094ZM9.20104 6.66118L9.215 6.63821C9.22727 6.65628 9.24027 6.67429 9.25393 6.69225C9.25514 6.69766 9.25641 6.70301 9.25777 6.70839C9.25493 6.70488 9.25166 6.70165 9.248 6.69871L9.20104 6.66118Z" fill="#FFAA5A"/>
</svg>
