<svg width="14" height="19" viewBox="0 0 14 19" fill="none" xmlns="http://www.w3.org/2000/svg">
<path d="M6.85742 0C3.07635 0 0 3.07635 0 6.85742C0 8.35375 0.472635 9.77552 1.36797 10.9684L6.43472 17.7924C6.44738 17.8089 6.46672 17.8153 6.48079 17.83C6.73399 18.1012 7.09937 18.0329 7.27977 17.7924C8.73882 15.8456 11.4132 12.2097 12.4415 10.8382C12.4415 10.8382 12.4418 10.8372 12.4422 10.8365L12.4485 10.828C13.277 9.66404 13.7148 8.29115 13.7148 6.85742C13.7148 3.07635 10.6385 0 6.85742 0ZM6.85742 10.5569C4.82165 10.5569 3.15793 8.8932 3.15793 6.85742C3.15793 4.82165 4.82165 3.15793 6.85742 3.15793C8.8932 3.15793 10.5569 4.82165 10.5569 6.85742C10.5569 8.8932 8.8932 10.5569 6.85742 10.5569Z" fill="#018BC6"/>
</svg>
