<svg width="29" height="11" viewBox="0 0 29 11" fill="none" xmlns="http://www.w3.org/2000/svg">
<path d="M28.4006 5.84595H0.597908C0.26719 5.84595 0 5.57876 0 5.24805C0 4.91733 0.26719 4.65014 0.597908 4.65014H26.9563L23.3278 1.02158C23.0942 0.788024 23.0942 0.408726 23.3278 0.175168C23.5613 -0.0583895 23.9406 -0.0583895 24.1742 0.175168L28.8248 4.82577C28.9967 4.99767 29.0471 5.25365 28.9537 5.47787C28.8603 5.70021 28.6417 5.84595 28.4006 5.84595Z" fill="#1D1D1D"/>
<path d="M23.7444 10.5019C23.5912 10.5019 23.438 10.4439 23.3222 10.3262C23.0886 10.0927 23.0886 9.71337 23.3222 9.47982L27.9784 4.82361C28.2119 4.59005 28.5912 4.59005 28.8248 4.82361C29.0584 5.05716 29.0584 5.43646 28.8248 5.67002L24.1686 10.3262C24.0509 10.4439 23.8977 10.5019 23.7444 10.5019Z" fill="#1D1D1D"/>
</svg>
